<svg id="Layer_5" enable-background="new 0 0 64 64" height="512" viewBox="0 0 64 64" width="512" xmlns="http://www.w3.org/2000/svg"><g><g><g><path d="m58 21.82c-.14-.05-.28-.11-.42-.18l-25.58-13.23-25.58 13.23c-.14.07-.28.13-.42.18-.32.12-.66.18-1 .18-1.11 0-2.12-.6-2.64-1.58-.79-1.45-.24-3.28 1.22-4.06l26.57-13.84c.55-.34 1.2-.52 1.85-.52s1.3.18 1.85.52l26.57 13.84c1.46.78 2.01 2.61 1.22 4.06-.52.98-1.53 1.58-2.64 1.58-.34 0-.68-.06-1-.18z" fill="#fcd770"/></g><g><path d="m57.58 21.64-25.58-13.23-25.58 13.23c-.14.07-.28.13-.42.18v34.18h52v-34.18c-.14-.05-.28-.11-.42-.18z" fill="#e6e9ed"/></g><g><path d="m37 44h-10c-1.1 0-2 .9-2 2v14c0 1.1.9 2 2 2h10c1.1 0 2-.9 2-2v-2-5-7c0-1.1-.9-2-2-2z" fill="#d3a06c"/></g><g><path d="m29.01 37.35-.01.01-1 2.64h-14.87-1.13c-1.1 0-2-.9-2-2v-12c0-1.1.9-2 2-2h4v4h5v3c0 .83.34 1.58.88 2.12s1.29.88 2.12.88h1.79c.32.72.73 1.35 1.21 1.88.57.63 1.25 1.12 2.01 1.47z" fill="#d3a06c"/></g><g><path d="m28 40-6.19.69c-1.79.2-3.42 1.13-4.5 2.57-.85 1.13-1.31 2.5-1.31 3.92v6.82c0 .73.2 1.41.54 2h-3.41-1.13c-1.1 0-2-.9-2-2v-12c0-1.1.9-2 2-2h1.13z" fill="#d3a06c"/></g><g><path d="m54 42v12c0 1.1-.9 2-2 2h-.99-3.55c.34-.59.54-1.27.54-2v-6.82c0-1.42-.46-2.79-1.31-3.92-1.08-1.44-2.71-2.37-4.5-2.57l-6.19-.69h14.84 1.16c1.1 0 2 .9 2 2z" fill="#d3a06c"/></g><g><path d="m54 26v12c0 1.1-.9 2-2 2h-1.16-14.84l-1-2.64-.01-.01c1.4-.65 2.53-1.79 3.22-3.35h1.79c1.66 0 3-1.34 3-3v-3h5v-4h4c1.1 0 2 .9 2 2z" fill="#d3a06c"/></g><g><path d="m16 24h5v4h-5z" fill="#b27946"/></g><g><path d="m43 24h5v4h-5z" fill="#b27946"/></g><g><path d="m25 53h4v5h-4-4-1c-1.48 0-2.77-.8-3.46-2-.34-.59-.54-1.27-.54-2v-6.82c0-1.42.46-2.79 1.31-3.92 1.08-1.44 2.71-2.37 4.5-2.57l6.19-.69.27 1.09c.43 1.71 1.97 2.91 3.73 2.91h-3-2c-1.1 0-2 .9-2 2z" fill="#b4dd7f"/></g><g><path d="m27 62h-6v-4h4v2c0 1.1.9 2 2 2z" fill="#b4dd7f"/></g><g><path d="m39 53v-7c0-1.1-.9-2-2-2h-2-3c.88 0 1.7-.3 2.36-.81.66-.52 1.16-1.25 1.37-2.1l.27-1.09 6.19.69c1.79.2 3.42 1.13 4.5 2.57.85 1.13 1.31 2.5 1.31 3.92v6.82c0 .73-.2 1.41-.54 2-.69 1.2-1.98 2-3.46 2h-1-4z" fill="#b4dd7f"/></g><g><path d="m43 58v4h-6c1.1 0 2-.9 2-2v-2z" fill="#b4dd7f"/></g><g><path d="m35 44v4h-6v-4h3z" fill="#b27946"/></g><g><path d="m43 28v3c0-.83-.34-1.58-.88-2.12s-1.29-.88-2.12-.88h-1v-1.83-.01c1.57-.68 2.95-1.76 4-3.16v1z" fill="#fcd770"/></g><g><path d="m43 23h-7c0-8-4-8-4-8h3c4.42 0 8 3.58 8 8z" fill="#ffeaa7"/></g><g><path d="m36 23h7c-1.05 1.4-2.43 2.48-4 3.16-1.24.55-2.6.84-4 .84h-6c-1.4 0-2.76-.29-4-.84-.16-.07-.32-.14-.47-.22-1.37-.68-2.59-1.68-3.53-2.94h7z" fill="#aab2bd"/></g><g><path d="m42.12 28.88c.54.54.88 1.29.88 2.12 0 1.66-1.34 3-3 3h-1.79c.51-1.12.79-2.47.79-4v-2h1c.83 0 1.58.34 2.12.88z" fill="#f0d0b4"/></g><g><path d="m39 28v2c0 1.53-.28 2.88-.79 4-.69 1.56-1.82 2.7-3.22 3.35-.89.43-1.91.65-2.99.65s-2.1-.22-2.99-.65c-.76-.35-1.44-.84-2.01-1.47-.48-.53-.89-1.16-1.21-1.88-.51-1.12-.79-2.47-.79-4v-2-1.83-.01c1.24.55 2.6.84 4 .84h6c1.4 0 2.76-.29 4-.84v.01z" fill="#f0d0b4"/></g><g><path d="m35 37.36 1 2.64-.27 1.09c-.21.85-.71 1.58-1.37 2.1-.66.51-1.48.81-2.36.81-1.76 0-3.3-1.2-3.73-2.91l-.27-1.09 1-2.64.01-.01c.89.43 1.91.65 2.99.65s2.1-.22 2.99-.65z" fill="#f0d0b4"/></g><g><path d="m36 23h-8c0-8 4-8 4-8s4 0 4 8z" fill="#ff826e"/></g><g><path d="m34.27 53.73c.45.45.73 1.08.73 1.77 0 1.38-1.12 2.5-2.5 2.5h-3.5v-5h3.5c.69 0 1.32.28 1.77.73z" fill="#f0d0b4"/></g><g><path d="m29 15h3s-4 0-4 8h-7c0-4.42 3.58-8 8-8z" fill="#ffeaa7"/></g><g><path d="m25.79 34h-1.79c-.83 0-1.58-.34-2.12-.88s-.88-1.29-.88-2.12c0-1.66 1.34-3 3-3h1v2c0 1.53.28 2.88.79 4z" fill="#f0d0b4"/></g><g><path d="m25 26.17v1.83h-1c-1.66 0-3 1.34-3 3v-3-4-1c.94 1.26 2.16 2.26 3.53 2.94.15.08.31.15.47.22z" fill="#fcd770"/></g></g><path d="m60.884 15.472-26.509-13.802c-1.43-.877-3.381-.843-4.689-.034l-26.582 13.842c-1.942 1.046-2.671 3.477-1.626 5.418.697 1.298 2.047 2.104 3.522 2.104v34h7 1.134 2.892c.914 1.207 2.348 2 3.974 2v4h7 10 7v-4c1.627 0 3.061-.793 3.974-2h3.034.992 7v-34c1.475 0 2.825-.806 3.522-2.103 1.046-1.942.316-4.373-1.638-5.425zm-49.884 22.528v-12c0-.551.449-1 1-1h3v4h5v2c0 2.206 1.794 4 4 4h1.198c.638 1.162 1.511 2.108 2.568 2.79l-.457 1.21h-14.175-1.134c-.551 0-1-.449-1-1zm42 0c0 .551-.449 1-1 1h-1.165-14.144l-.457-1.21c1.057-.682 1.931-1.628 2.568-2.79h1.198c2.206 0 4-1.794 4-4v-2h5v-4h3c.551 0 1 .449 1 1zm-21-21.998c.248.021 2.708.38 2.973 5.998h-5.945c.264-5.618 2.724-5.977 2.972-5.998zm8.644 7.998c-1.585 1.273-3.579 2-5.644 2h-6c-2.065 0-4.058-.727-5.644-2zm1.356 3.556c-.591-.344-1.268-.556-2-.556v-.215c.71-.363 1.382-.799 2-1.308zm-2 2.444v-1c1.103 0 2 .897 2 2s-.897 2-2 2h-.395c.254-.924.395-1.927.395-3zm-18-4.523c.618.508 1.29.945 2 1.308v.215c-.732 0-1.409.212-2 .556zm2 3.523v1c0 1.073.141 2.076.395 3h-.395c-1.103 0-2-.897-2-2s.897-2 2-2zm2-1.439c.969.277 1.975.439 3 .439h6c1.025 0 2.031-.162 3-.439v2.439c0 4.252-2.355 7-6 7s-6-2.748-6-7zm4 17.439h4v2h-4zm-.757-4.153-.197-.786.536-1.419c.752.232 1.561.358 2.418.358s1.666-.126 2.417-.358l.536 1.419-.197.786c-.316 1.268-1.449 2.153-2.756 2.153s-2.44-.885-2.757-2.153zm17.757-13.847h-3v-2h3zm-10.034-5c-.132-2.946-.824-4.813-1.661-5.985 3.382.147 6.15 2.696 6.623 5.985zm-9.932 0h-4.962c.473-3.289 3.241-5.838 6.623-5.985-.837 1.172-1.529 3.039-1.661 5.985zm-7.034 5h-3v-2h3zm-6.866 28h-1.134c-.551 0-1-.449-1-1v-12c0-.551.449-1 1-1h1.134 5.102c-.656.455-1.244 1.011-1.73 1.659-.971 1.295-1.506 2.899-1.506 4.517v6.824c0 .342.035.677.101 1zm3.866-1v-6.824c0-1.188.393-2.366 1.105-3.316.912-1.216 2.301-2.009 3.812-2.178l5.325-.591.06.242c.155.619.434 1.176.792 1.668h-1.094c-1.654 0-3 1.346-3 3v6h-2v-5h-2v5.638c-.1.077-.202.15-.293.241l-.414.414 1.414 1.414.414-.414c.189-.19.441-.294.708-.294h6.171v3h-8c-1.654 0-3-1.346-3-3zm15.5 0c.827 0 1.5.673 1.5 1.5s-.673 1.5-1.5 1.5h-2.5v-3zm-10.5 5h2v1c0 .352.072.686.184 1h-2.184zm5 2c-.551 0-1-.449-1-1v-1h6.5c1.93 0 3.5-1.57 3.5-3.5s-1.57-3.5-3.5-3.5h-6.5v-6c0-.551.449-1 1-1h1v4h8v-4h1c.551 0 1 .449 1 1v14c0 .551-.449 1-1 1zm15 0h-2.184c.112-.314.184-.648.184-1v-1h2zm5-7c0 1.654-1.346 3-3 3h-4v-3h2.171c.267 0 .519.104.708.293l.414.414 1.414-1.414-.414-.414c-.091-.091-.193-.164-.293-.241v-5.638h-2v5h-2v-6c0-1.654-1.346-3-3-3h-1.094c.358-.492.637-1.049.792-1.668l.06-.242 5.325.591c1.51.168 2.899.962 3.812 2.178.712.951 1.105 2.128 1.105 3.317zm4.009 1h-2.11c.066-.323.101-.658.101-1v-6.824c0-1.618-.535-3.222-1.506-4.517-.486-.648-1.074-1.204-1.73-1.659h5.071 1.165c.551 0 1 .449 1 1v12c0 .551-.449 1-1 1zm3.807 0c.112-.314.184-.648.184-1v-12c0-.771-.301-1.468-.78-2 .48-.532.78-1.229.78-2v-12c0-1.654-1.346-3-3-3h-8c0-4.962-4.038-9-9-9h-6c-4.962 0-9 4.038-9 9h-8c-1.654 0-3 1.346-3 3v12c0 .771.301 1.468.78 2-.479.532-.78 1.229-.78 2v12c0 .352.072.686.184 1h-2.184v-32.532l25-12.935 25 12.935v32.532zm5.945-35.051c-.505.939-1.74 1.336-2.723.804l-26.038-13.472-26.056 13.481c-.925.502-2.201.126-2.706-.814-.522-.971-.158-2.187.801-2.703l26.63-13.87c.801-.49 1.799-.524 2.721.034l26.558 13.83c.971.523 1.336 1.739.813 2.71z"/></g></svg>