<svg id="Layer_5" enable-background="new 0 0 64 64" height="512" viewBox="0 0 64 64" width="512" xmlns="http://www.w3.org/2000/svg"><g><g><g><path d="m9 30h-5v-3c0-3.04 1.23-5.79 3.22-7.78 1.31-1.31 2.95-2.29 4.78-2.8v.58c0 1.66 1.34 3 3 3 .83 0 1.58-.34 2.12-.88s.88-1.29.88-2.12v-.57-.01c1.84.52 3.49 1.5 4.8 2.82-2.34 2.19-3.8 5.3-3.8 8.76v2z" fill="#e6e9ed"/></g><g><path d="m47 24 2 2 2-2-.79-7.93c2.55.27 4.85 1.43 6.57 3.15 1.99 1.99 3.22 4.74 3.22 7.78v3h-5-10v-2c0-3.46-1.46-6.57-3.8-8.76 1.72-1.73 4.02-2.89 6.59-3.17z" fill="#e6e9ed"/></g><g><path d="m50.21 16.07.79 7.93-2 2-2-2 .79-7.93c.4-.05.8-.07 1.21-.07s.81.02 1.21.07z" fill="#ff826e"/></g><g><path d="m24 30h-5v-2c0-3.46 1.46-6.57 3.8-8.76 1.15-1.09 2.53-1.95 4.05-2.5l2.72 8.69 1.43 4.57z" fill="#4fc1e9"/></g><g><path d="m40 30h-7l1.43-4.57 2.72-8.69c1.52.55 2.9 1.41 4.05 2.5 2.34 2.19 3.8 5.3 3.8 8.76v2z" fill="#4fc1e9"/></g><g><path d="m30.75 16.01-1.18 9.42-2.72-8.69c1.22-.45 2.53-.71 3.9-.73z" fill="#ccd1d9"/></g><g><path d="m37.15 16.74-2.72 8.69-1.18-9.42c1.37.02 2.68.28 3.9.73z" fill="#ccd1d9"/></g><g><path d="m33.25 16.01 1.18 9.42-1.43 4.57h-2l-1.43-4.57 1.18-9.42c.08-.01.17-.01.25-.01h1 1c.08 0 .17 0 .25.01z" fill="#ffeaa7"/></g><g><path d="m18 16.43v.57c0 .83-.34 1.58-.88 2.12s-1.29.88-2.12.88c-1.66 0-3-1.34-3-3v-.58c.95-.28 1.96-.42 3-.42s2.05.14 3 .42z" fill="#f0d0b4"/></g><g><circle cx="15" cy="10" fill="#f0d0b4" r="6"/></g><g><circle cx="49" cy="10" fill="#f0d0b4" r="6"/></g><g><circle cx="32" cy="9" fill="#f0d0b4" r="7"/></g><g><path d="m60 34v28h-56v-28z" fill="#d3a06c"/></g><g><path d="m33 30h7 5 10 5 2v4h-2-56-2v-4h2 5 10 5 7z" fill="#b27946"/></g><g><path d="m15 38h17c-5.52 0-10 4.48-10 10s4.48 10 10 10h-17c0-3.87-3.13-7-7-7v-6c3.87 0 7-3.13 7-7z" fill="#b4dd7f"/></g><g><path d="m56 45v6c-3.87 0-7 3.13-7 7h-17c5.52 0 10-4.48 10-10s-4.48-10-10-10h17c0 3.87 3.13 7 7 7z" fill="#b4dd7f"/></g><g><path d="m15 58h-7v-7c3.87 0 7 3.13 7 7z" fill="#a0d468"/></g><g><path d="m8 38h7c0 3.87-3.13 7-7 7z" fill="#a0d468"/></g><g><path d="m56 38v7c-3.87 0-7-3.13-7-7z" fill="#a0d468"/></g><g><path d="m56 51v7h-7c0-3.87 3.13-7 7-7z" fill="#a0d468"/></g><g><circle cx="32" cy="48" fill="#fcd770" r="10"/></g></g><g><path d="m33 45c.552 0 1 .448 1 1h2c0-1.654-1.346-3-3-3v-2h-2v2h-3v3c0 1.654 1.346 3 3 3h2c.552 0 1 .448 1 1v1h-3c-.552 0-1-.448-1-1h-2c0 1.654 1.346 3 3 3v2h2v-2h3v-3c0-1.654-1.346-3-3-3h-2c-.552 0-1-.448-1-1v-1z"/><path d="m57 59v-22h-50v22zm-48-6.91c2.507.423 4.486 2.403 4.91 4.91h-4.91zm41.09 4.91c.423-2.507 2.403-4.486 4.91-4.91v4.91zm4.91-13.09c-2.507-.423-4.486-2.403-4.91-4.91h4.91zm-6.931-4.91c.453 3.612 3.319 6.477 6.931 6.931v4.139c-3.612.453-6.477 3.319-6.931 6.931h-9.765c2.835-1.993 4.696-5.281 4.696-9.001s-1.861-7.008-4.695-9zm-16.069 18c-4.963 0-9-4.037-9-9s4.037-9 9-9 9 4.037 9 9-4.037 9-9 9zm-11-9c0 3.72 1.861 7.008 4.695 9h-9.765c-.453-3.612-3.319-6.477-6.931-6.931v-4.139c3.612-.453 6.477-3.319 6.931-6.931h9.765c-2.834 1.993-4.695 5.281-4.695 9.001zm-7.09-9c-.423 2.507-2.403 4.486-4.91 4.91v-4.91z"/><path d="m63 29h-2v-2c0-5.201-3.331-9.627-7.968-11.288 1.792-1.269 2.968-3.354 2.968-5.712 0-3.859-3.141-7-7-7s-7 3.141-7 7c0 2.355 1.173 4.439 2.963 5.708-1.376.491-2.655 1.229-3.782 2.202-1.33-1.08-2.877-1.898-4.564-2.387 2.043-1.452 3.383-3.832 3.383-6.523 0-4.411-3.589-8-8-8s-8 3.589-8 8c0 2.691 1.34 5.071 3.384 6.522-1.687.49-3.235 1.307-4.565 2.388-1.127-.973-2.406-1.711-3.782-2.202 1.79-1.269 2.963-3.353 2.963-5.708 0-3.859-3.141-7-7-7s-7 3.141-7 7c0 2.358 1.176 4.443 2.968 5.712-4.637 1.661-7.968 6.087-7.968 11.288v2h-2v6h2v28h58v-28h2zm-4-2v2h-3v-6h-2v6h-8v-1c0-3.35-1.285-6.398-3.373-8.706 1.183-.982 2.562-1.659 4.04-2.011l-.708 7.088 3.041 3.043 3.042-3.042-.708-7.086c4.39 1.056 7.666 5.005 7.666 9.714zm-20-4v6h-4.64l3.406-10.899c3.682 1.78 6.234 5.542 6.234 9.899v1h-3v-6zm-16 0v6h-3v-1c0-4.357 2.552-8.118 6.234-9.899l3.406 10.899h-4.64v-6zm5.109-5.602c.487-.133.985-.235 1.496-.3l-.454 3.633zm3.626 11.602-1.144-3.662 1.041-8.338h.735l1.042 8.338-1.144 3.662zm3.114-8.269-.454-3.632c.511.065 1.009.167 1.495.3zm14.151-3.731c.1 0 .197.012.297.015l.661 6.613-.958.958-.958-.958.661-6.613c.099-.003.197-.015.297-.015zm-5-7c0-2.757 2.243-5 5-5s5 2.243 5 5-2.243 5-5 5-5-2.243-5-5zm-18-1c0-3.309 2.691-6 6-6s6 2.691 6 6-2.691 6-6 6-6-2.691-6-6zm-11 8c.673 0 1.335.066 1.98.195-.1 1.01-.944 1.805-1.98 1.805-1.035 0-1.879-.793-1.98-1.801.64-.13 1.302-.199 1.98-.199zm-5-7c0-2.757 2.243-5 5-5s5 2.243 5 5-2.243 5-5 5-5-2.243-5-5zm-5 17c0-4.123 2.51-7.671 6.081-9.198.372 1.823 1.988 3.198 3.919 3.198 1.933 0 3.548-1.377 3.919-3.202.879.375 1.706.875 2.454 1.496-2.088 2.308-3.373 5.356-3.373 8.706v1h-8v-6h-2v6h-3zm54 34h-54v-26h54zm2-28h-58v-2h58z"/></g></g></svg>